<?xml version="1.0" standalone="no"?>
<!DOCTYPE svg PUBLIC "-//W3C//DTD SVG 20010904//EN"
 "http://www.w3.org/TR/2001/REC-SVG-20010904/DTD/svg10.dtd">
<svg version="1.0" xmlns="http://www.w3.org/2000/svg"
 width="329.000000pt" height="329.000000pt" viewBox="0 0 329.000000 329.000000"
 preserveAspectRatio="xMidYMid meet">
<metadata>
Created by potrace 1.11, written by Peter Selinger 2001-2013
</metadata>
<g transform="translate(0.000000,329.000000) scale(0.100000,-0.100000)"
fill="#000000" stroke="none">
<path d="M1589 2951 c-23 -18 -24 -26 -24 -131 0 -111 0 -112 29 -137 23 -19
36 -24 60 -19 56 11 66 35 66 155 0 94 -3 110 -20 129 -26 28 -79 29 -111 3z"/>
<path d="M1253 2790 c-26 -11 -43 -40 -43 -75 0 -33 128 -170 165 -177 30 -6
80 15 89 37 16 43 6 72 -50 134 -76 83 -111 101 -161 81z"/>
<path d="M1955 2782 c-40 -26 -131 -123 -139 -150 -10 -30 13 -74 46 -90 40
-19 81 3 156 82 46 50 62 74 62 95 0 63 -69 98 -125 63z"/>
<path d="M1151 2226 c-43 -15 -114 -64 -139 -98 -12 -17 -15 -17 -52 2 -141
72 -305 -15 -326 -173 -10 -69 12 -132 63 -185 24 -25 43 -46 43 -47 0 -1 -25
3 -56 9 -101 18 -200 -25 -249 -108 -28 -48 -85 -328 -85 -422 0 -111 80 -201
202 -225 46 -9 58 -15 54 -28 -3 -9 -10 -52 -17 -96 -11 -73 -10 -85 6 -119
35 -74 51 -80 385 -140 167 -31 325 -56 350 -56 63 0 110 28 137 81 15 31 44
176 99 492 l78 448 78 -443 c43 -244 85 -462 94 -485 20 -56 63 -86 128 -91
34 -2 156 15 361 53 346 62 359 67 390 150 18 46 18 49 -11 197 -5 24 -2 27
38 33 131 21 218 115 218 235 0 51 -56 351 -73 392 -39 93 -139 145 -255 133
l-66 -7 32 27 c52 44 76 100 77 176 0 56 -4 73 -30 115 -44 71 -110 109 -189
109 -42 0 -74 -7 -102 -21 l-42 -20 -38 38 c-62 62 -115 83 -214 83 -72 0 -93
-4 -136 -27 -59 -31 -109 -84 -136 -144 l-18 -42 -106 3 -106 3 -18 40 c-25
56 -80 114 -137 142 -58 30 -166 37 -232 16z m-443 -661 c3 -3 -11 -98 -31
-213 -21 -114 -37 -212 -37 -216 0 -14 -92 3 -112 21 -24 22 -23 57 7 232 23
128 29 149 52 170 23 20 33 22 72 17 24 -3 47 -8 49 -11z m1996 -8 c18 -18 27
-52 50 -184 16 -88 26 -173 22 -187 -7 -30 -28 -43 -84 -52 l-40 -6 -17 98
c-10 55 -28 154 -40 221 l-21 122 25 4 c61 10 83 6 105 -16z"/>
</g>
</svg>
