<svg xmlns="http://www.w3.org/2000/svg" width="777.192" height="243.117" viewBox="0 0 777.192 243.117"><g transform="translate(-172 -140)"><g transform="translate(172 124.501)"><path d="M31.964,260.24l22.4,3.95L51.73,279.122l-22.4-3.949a7.582,7.582,0,0,0-8.783,6.15l-5.266,29.865a7.583,7.583,0,0,0,6.15,8.783l22.4,3.949L41.2,338.853,18.8,334.9A22.745,22.745,0,0,1,.349,308.555l5.266-29.865A22.744,22.744,0,0,1,31.964,260.24Z" transform="translate(0 -120.867)" fill="#ff9f00"/><path d="M154.558,249.441,136.127,353.97a15.208,15.208,0,0,1-17.566,12.3L58.83,355.738a15.208,15.208,0,0,1-12.3-17.566l18.431-104.53Z" transform="translate(-22.898 -107.885)" fill="#fdbf00"/><path d="M196.042,257.17,177.61,361.7A15.208,15.208,0,0,1,160.044,374l-29.865-5.266,21.065-119.463Z" transform="translate(-64.382 -115.614)" fill="#ff9f00"/><path d="M175.4,208.045a22.715,22.715,0,0,1-26.349,18.45,22.262,22.262,0,0,1-15.6-11.066,30.06,30.06,0,0,1-40.617-7.162,22.261,22.261,0,0,1-18.445,5.062,22.745,22.745,0,1,1,7.9-44.8,23.053,23.053,0,0,1,9.706,4.329,30.335,30.335,0,0,1,54.356,9.584,23.052,23.052,0,0,1,10.6-.748A22.716,22.716,0,0,1,175.4,208.045Z" transform="translate(-27.491 -71.323)" fill="#ffe1ba"/><path d="M230.325,208.5a22.715,22.715,0,0,1-26.349,18.45,22.262,22.262,0,0,1-15.6-11.066,30.332,30.332,0,0,1-21.73,4.483l10.532-59.731a30.388,30.388,0,0,1,24.1,22.263,23.053,23.053,0,0,1,10.6-.748A22.716,22.716,0,0,1,230.325,208.5Z" transform="translate(-82.416 -71.78)" fill="#ffd396"/><path d="M426.841,260.24l-22.4,3.95,2.633,14.933,22.4-3.949a7.582,7.582,0,0,1,8.783,6.15l5.266,29.865a7.583,7.583,0,0,1-6.15,8.783l-22.4,3.949,2.633,14.933,22.4-3.95a22.745,22.745,0,0,0,18.45-26.349l-5.266-29.865A22.744,22.744,0,0,0,426.841,260.24Z" transform="translate(-200.021 -120.867)" fill="#ff7816"/><path d="M341.108,233.642l18.431,104.53a15.208,15.208,0,0,1-12.3,17.566L287.508,366.27a15.208,15.208,0,0,1-17.566-12.3l-18.431-104.53Z" transform="translate(-124.388 -107.885)" fill="#fdbf00"/><path d="M384.943,233.642l18.431,104.53a15.208,15.208,0,0,1-12.3,17.566L361.209,361,340.144,241.542Z" transform="translate(-168.222 -107.885)" fill="#ff9f00"/><path d="M338.481,186.983a22.715,22.715,0,0,1-18.45,26.349,22.263,22.263,0,0,1-18.445-5.062,30.06,30.06,0,0,1-40.617,7.162,22.262,22.262,0,0,1-15.6,11.066,22.745,22.745,0,0,1-7.9-44.8,23.053,23.053,0,0,1,10.6.748,30.335,30.335,0,0,1,54.356-9.584,23.047,23.047,0,0,1,9.706-4.329A22.713,22.713,0,0,1,338.481,186.983Z" transform="translate(-108.144 -71.325)" fill="#ffe1ba"/><path d="M390.83,186.982a22.715,22.715,0,0,1-18.45,26.349,22.263,22.263,0,0,1-18.445-5.062,30.333,30.333,0,0,1-18.886,11.645l-10.532-59.731a30.387,30.387,0,0,1,30.259,12.679,23.046,23.046,0,0,1,9.706-4.329A22.713,22.713,0,0,1,390.83,186.982Z" transform="translate(-160.493 -71.324)" fill="#ffd396"/><path d="M256.162,23.081V38.244a7.582,7.582,0,1,1-15.163,0V23.081a7.582,7.582,0,1,1,15.163,0Z" transform="translate(-119.189)" fill="#00c4dd"/><path d="M297.976,75.777a7.582,7.582,0,0,1-5.36-12.942l10.72-10.72a7.581,7.581,0,0,1,10.721,10.721L303.336,73.557A7.557,7.557,0,0,1,297.976,75.777Z" transform="translate(-143.618 -17.01)" fill="#00c4dd"/><path d="M297.976,75.777a7.582,7.582,0,0,1-5.36-12.942l10.72-10.72a7.581,7.581,0,0,1,10.721,10.721L303.336,73.557A7.557,7.557,0,0,1,297.976,75.777Z" transform="translate(-143.618 -17.01)" fill="rgba(0,0,0,0.16)"/><path d="M188.7,75.777a7.555,7.555,0,0,1-5.36-2.221l-10.721-10.72a7.581,7.581,0,1,1,10.721-10.721l10.721,10.721A7.581,7.581,0,0,1,188.7,75.777Z" transform="translate(-84.27 -17.01)" fill="#00c4dd"/><path d="M263.581,23.081V38.244A7.508,7.508,0,0,1,256,45.825V15.5A7.507,7.507,0,0,1,263.581,23.081Z" transform="translate(-126.607)" fill="rgba(0,0,0,0.16)"/></g><path d="M94.656-96.56a9.6,9.6,0,0,1,7.276,2.924,10.489,10.489,0,0,1,2.788,7.548V-8.84a9.556,9.556,0,0,1-2.584,7.072,9.194,9.194,0,0,1-6.8,2.584,9.019,9.019,0,0,1-6.664-2.584A9.556,9.556,0,0,1,86.088-8.84V-56.848L66.776-20.536a15.117,15.117,0,0,1-4.148,5.168,8.885,8.885,0,0,1-5.372,1.632,8.968,8.968,0,0,1-5.3-1.632,14.706,14.706,0,0,1-4.216-5.168L28.424-56.168V-8.84a9.608,9.608,0,0,1-2.584,7A9.066,9.066,0,0,1,19.04.816a9.019,9.019,0,0,1-6.664-2.584A9.556,9.556,0,0,1,9.792-8.84V-86.088a10.489,10.489,0,0,1,2.788-7.548,9.6,9.6,0,0,1,7.276-2.924q6.528,0,9.928,6.936l27.608,52.36,27.472-52.36Q88.536-96.56,94.656-96.56ZM162.52-62.288a8.773,8.773,0,0,1,3.468-4.216,9.152,9.152,0,0,1,4.828-1.36,10.455,10.455,0,0,1,6.936,2.516,7.657,7.657,0,0,1,2.992,6.052,8.449,8.449,0,0,1-.952,3.808L143.208,19.584a9.826,9.826,0,0,1-3.672,4.284,9.167,9.167,0,0,1-4.9,1.428,9.924,9.924,0,0,1-6.664-2.448,7.6,7.6,0,0,1-2.856-5.984,9,9,0,0,1,.952-4.08l8.976-18.632L110.84-55.488a9.3,9.3,0,0,1-.816-3.672,7.8,7.8,0,0,1,3.2-6.256A11.257,11.257,0,0,1,120.5-68a9.4,9.4,0,0,1,5.032,1.428,9.826,9.826,0,0,1,3.672,4.284l16.864,36.72ZM247.384-49.64a24.022,24.022,0,0,1,12.852,8.5q4.556,6.052,4.556,14.892,0,12.1-8.908,19.176T231.336,0H195.7q-4.76,0-7.344-2.584t-2.584-7.344V-85.952q0-4.76,2.584-7.344T195.7-95.88h34.272q14.96,0,23.732,6.664t8.772,18.224a22.069,22.069,0,0,1-4.012,13.124A22.78,22.78,0,0,1,247.384-49.64Zm-40.936-7.208H226.44q8.16,0,12.036-2.788t3.876-8.5q0-5.984-3.876-8.772T226.44-79.7H206.448Zm22.44,40.664q8.432,0,12.24-2.856t3.808-9.248q0-6.392-3.808-9.384t-12.24-2.992h-22.44v24.48Zm97.1-3.672a5.351,5.351,0,0,1,4.42,2.176,8.789,8.789,0,0,1,1.7,5.576,7.394,7.394,0,0,1-1.36,4.284,11.005,11.005,0,0,1-3.808,3.332A48.721,48.721,0,0,1,316.2-.476a45.834,45.834,0,0,1-11.288,1.564A40.514,40.514,0,0,1,285.94-3.128,29.519,29.519,0,0,1,273.5-15.164a37.3,37.3,0,0,1-4.352-18.428A37.781,37.781,0,0,1,273.36-51.68a30.906,30.906,0,0,1,11.7-12.308,32.779,32.779,0,0,1,17-4.42,31.1,31.1,0,0,1,15.98,4.012,27.39,27.39,0,0,1,10.676,11.424,37.457,37.457,0,0,1,3.808,17.34,6.535,6.535,0,0,1-1.428,4.556,5.158,5.158,0,0,1-4.012,1.564H289q.952,8.024,4.9,11.628t11.288,3.6a24.27,24.27,0,0,0,7.072-.952,68.321,68.321,0,0,0,6.936-2.584q1.9-.816,3.672-1.428A9.728,9.728,0,0,1,325.992-19.856ZM302.6-54.264a12.309,12.309,0,0,0-9.384,3.74Q289.68-46.784,289-39.712h26.248q-.408-7.208-3.6-10.88T302.6-54.264Zm90.44,34.408a5.351,5.351,0,0,1,4.42,2.176,8.789,8.789,0,0,1,1.7,5.576A7.394,7.394,0,0,1,397.8-7.82a11.005,11.005,0,0,1-3.808,3.332A48.721,48.721,0,0,1,383.248-.476,45.834,45.834,0,0,1,371.96,1.088a40.514,40.514,0,0,1-18.972-4.216,29.519,29.519,0,0,1-12.444-12.036,37.3,37.3,0,0,1-4.352-18.428,37.781,37.781,0,0,1,4.216-18.088,30.906,30.906,0,0,1,11.7-12.308,32.779,32.779,0,0,1,17-4.42,31.1,31.1,0,0,1,15.98,4.012A27.39,27.39,0,0,1,395.76-52.972a37.457,37.457,0,0,1,3.808,17.34,6.535,6.535,0,0,1-1.428,4.556,5.158,5.158,0,0,1-4.012,1.564h-38.08q.952,8.024,4.9,11.628t11.288,3.6a24.27,24.27,0,0,0,7.072-.952,68.321,68.321,0,0,0,6.936-2.584q1.9-.816,3.672-1.428A9.728,9.728,0,0,1,393.04-19.856ZM369.648-54.264a12.309,12.309,0,0,0-9.384,3.74q-3.536,3.74-4.216,10.812H382.3q-.408-7.208-3.6-10.88T369.648-54.264Zm76.7-13.872a8.492,8.492,0,0,1,6.46,1.836q2.38,2.108,2.38,6.324,0,4.488-2.176,6.664t-7.752,2.72l-4.08.408q-7.48.816-10.812,4.9a16.019,16.019,0,0,0-3.332,10.472V-8.84q0,4.76-2.924,7.208A10.949,10.949,0,0,1,416.84.816a11.153,11.153,0,0,1-7.412-2.448Q406.5-4.08,406.5-8.84V-58.752a8.454,8.454,0,0,1,2.992-6.936,11.018,11.018,0,0,1,7.208-2.448,9.954,9.954,0,0,1,6.8,2.38,8.3,8.3,0,0,1,2.72,6.6v3.672a18.9,18.9,0,0,1,7.412-8.976A22.98,22.98,0,0,1,444.448-68Z" transform="translate(494 336)" fill="#00c4dd"/></g></svg>